<?xml version="1.0" encoding="utf-8"?>
<!-- Generator: Adobe Illustrator 27.5.0, SVG Export Plug-In . SVG Version: 6.00 Build 0)  -->
<svg version="1.1" id="Layer_1" xmlns="http://www.w3.org/2000/svg" xmlns:xlink="http://www.w3.org/1999/xlink" x="0px" y="0px"
	 viewBox="0 0 512 512" style="enable-background:new 0 0 512 512;" xml:space="preserve">
<style type="text/css">
	.st0{fill:#FFFFFF;}
</style>
<g transform="translate(0,0)">
	<path class="st0" d="M256,20.5l-13.3,39.8c4.4-0.5,8.8-0.8,13.3-0.8c4.5,0,8.9,0.3,13.3,0.8L256,20.5z M148.7,28.1
		c-93.2,19.1-153,155.4,9.7,172.8c-4.8-11.8-7.4-24.6-7.4-38.1c0-15.2,3.3-29.6,9.3-42.5C103.7,96.5,99.3,65.1,148.7,28.1
		L148.7,28.1z M363.3,28.1c49.4,37,44.9,68.4-11.6,92.2c6,13,9.3,27.4,9.3,42.5c0,13.5-2.6,26.3-7.4,38.1
		C516.3,183.4,456.5,47.1,363.3,28.1L363.3,28.1z M256,77.5c-48.2,0-87,38.2-87,85.3c0,47.1,38.8,85.3,87,85.3
		c48.2,0,87-38.2,87-85.3C343,115.7,304.3,77.5,256,77.5z M247,100.5h18v7.8c14.7,2.5,26.3,10.8,35.4,19.9
		c10.9,10.8,19.1,23.1,26,30l6.4,6.4l-6.4,6.4c-6.9,6.9-15.1,19.2-26,30c-9.1,9.1-20.7,17.4-35.4,19.9v7.8h-18v-7.8
		c-14.7-2.5-26.3-10.8-35.4-19.9c-10.9-10.8-19.1-23.1-26-30l-6.4-6.4l6.4-6.4c6.9-6.9,15.1-19.2,26-30c9.1-9.1,20.7-17.4,35.4-19.9
		V100.5z M247,126.6c-8.6,2.2-15.7,7.4-22.6,14.3c-7.1,7.1-13.5,15.8-20.2,23.6c6.7,7.8,13.1,16.5,20.2,23.6
		c6.9,6.9,14,12.1,22.6,14.3v-7c-13.3-3.9-23.2-16.3-23.2-30.9c0-14.6,9.9-27,23.2-30.9V126.6L247,126.6z M265,126.6v7
		c13.3,3.9,23.2,16.3,23.2,30.9s-9.9,27-23.2,30.9v7c8.6-2.2,15.7-7.4,22.6-14.3c7.1-7.1,13.5-15.8,20.2-23.6
		c-6.7-7.8-13-16.5-20.2-23.6C280.8,134,273.7,128.7,265,126.6L265,126.6z M256,150.3c-7.9,0-14.2,6.2-14.2,14.2s6.3,14.2,14.2,14.2
		c8,0,14.2-6.3,14.2-14.2S264,150.3,256,150.3L256,150.3z M233,263.6v35.9h46v-35.9c-7.4,1.6-15.1,2.5-23,2.5S240.4,265.2,233,263.6
		z M242.4,317.5v164.9c1.4,2.7,5.6,9.1,13.6,9.1c7.9,0,12.4-6.4,14.1-9.2l0-164.8H242.4L242.4,317.5z M288.1,395.5l0,18H320v-18
		H288.1z M288.1,427.5l0,18H304v-18H288.1L288.1,427.5z M288.1,459.5l0,18H320v-18H288.1L288.1,459.5z"/>
</g>
</svg>
