<?xml version="1.0" encoding="utf-8"?>
<!-- Generator: Adobe Illustrator 27.5.0, SVG Export Plug-In . SVG Version: 6.00 Build 0)  -->
<svg version="1.1" id="Layer_1" xmlns="http://www.w3.org/2000/svg" xmlns:xlink="http://www.w3.org/1999/xlink" x="0px" y="0px"
	 viewBox="0 0 512 512" style="enable-background:new 0 0 512 512;" xml:space="preserve">
<style type="text/css">
	.st0{fill:#FFFFFF;}
</style>
<g transform="translate(0,0)">
	<path class="st0" d="M290.8,14.6c-14.1,0-47.3,44-47.3,80c0,26.7,11.1,44.4,38.4,46.8c3.6-21.2,3.1-42-3-62.9l17.9-5.3
		c6.6,22.6,7.5,45.3,4.1,67.6c27.6-3.9,37.3-20.5,37.3-46.3C338.1,58.6,304.4,14.6,290.8,14.6L290.8,14.6z M245.6,154.7v11.8
		l-0.2-3.9c0.8,26.4-17.4,28.7-17.1,48.2c0.2,15.4,12.2,20.1,17.3,12.7v145.8h97.2v-83.5c6.5,7.5,19.8,1.6,20.1-16.2
		c0.3-20.8-16.9-25.3-20.1-48.2v-66.6C310.3,165,276.9,164.5,245.6,154.7L245.6,154.7z M113.6,285.3c-19.4,0-37.2,10.3-48.1,26.1
		c-14.5,21.1-17.5,52-0.8,81.4c7.8,13.8,4.4,25.9-2.1,32.3c-6.5,6.4-15.5,8.6-27.6-2.5l-12.7,13.7c17.6,16.2,40.3,14.8,53.2,2.2
		c12.9-12.6,16.8-34.7,5.3-54.9c-13.5-23.8-10.4-46.5,0-61.6s27.3-22.5,46-15.6c23.7,8.8,34.5,29.8,32.8,48.1
		c-1.4,15.1-10,28.6-30.1,33.4h-25.7c3.3,6.7,7.1,13.3,11.4,19.5l0,1c0.2,0,0.4,0,0.6,0c10.9,15.8,24.7,30,41.1,42.2H443
		c23.3-17.3,41.9-38.5,53.8-62.7H164.3c8.2-9,13-20.2,14.1-31.8c2.4-26.9-13.8-55.7-44.9-67.3C126.8,286.5,120.1,285.3,113.6,285.3
		L113.6,285.3z"/>
</g>
</svg>
