<?xml version="1.0" encoding="utf-8"?>
<!-- Generator: Adobe Illustrator 27.5.0, SVG Export Plug-In . SVG Version: 6.00 Build 0)  -->
<svg version="1.1" id="Layer_2_00000059300398093919601320000001811676950578111412_"
	 xmlns="http://www.w3.org/2000/svg" xmlns:xlink="http://www.w3.org/1999/xlink" x="0px" y="0px" viewBox="0 0 512 327.7"
	 style="enable-background:new 0 0 512 327.7;" xml:space="preserve">
<style type="text/css">
	.st0{fill:#B99F65;}
</style>
<g>
	<g>
		<path class="st0" d="M195.4,176l-41.1,36.4l33,12.6l23.1-38.8c3.8,2.3,6.2,3.6,6.2,3.6l11.5-15.8c-31.4-13.7-38.7-31.5-49.2-60.9
			c-10.5-29.4,30.4-77.7,30.4-77.7s-13.5,5.3-27.8,20.3L10.5,20.2L13.6,69l151.4,12.2c-1.6,4.7-2.7,9.6-3.4,14.6L22.3,97.4
			l31.4,48.9l107.8-26.7c0.8,7.5,2.5,14.8,4.9,21.3l-90.7,28.2l43.2,30.7l60.4-38.2C184.2,167,189.9,171.9,195.4,176z M224.9,85.9
			l-29.9,48.5h119.4l-59.7-96.9L224.9,85.9l59.1,0l-29.6,48L224.9,85.9z M212.3,213.2l-9.4,5.5l-7.9,29.2l-43.2,3.2l-9.4,12.6
			l0.8,11.8l31.4,43.3l-12.6-48.1l33.8-3.2l-2.4,17.3l22.8-19.7l-5.5-11l11.8-32.3L212.3,213.2z M499,20.2L328.1,55.7
			c-14.3-15-27.8-20.3-27.8-20.3s40.8,48.3,30.4,77.7c-10.5,29.4-17.8,47.3-49.2,60.9l11.5,15.8c0,0,2.4-1.3,6.2-3.6l23.1,38.8
			l33-12.6L314.1,176c5.5-4.1,11.2-9.1,16.1-14.4l60.4,38.2l43.2-30.7l-90.7-28.2c2.4-6.5,4.1-13.8,4.9-21.3l107.8,26.7l31.4-48.9
			l-139.4-1.5c-0.7-5-1.8-10-3.4-14.6L495.9,69L499,20.2z M314.4,247.9l-7.9-29.2l-9.4-5.5l-10.2,8.7l11.8,32.3l-5.5,11l22.8,19.7
			l-2.4-17.3l33.8,3.2l-12.6,48.1l31.4-43.3l0.8-11.8l-9.4-12.6L314.4,247.9z M265.7,227.4l21.2-22.9l-32.2-54.4l-32.2,54.4
			l21.2,22.9l0.8,8.7l-7.9,5.5l18.1,66.2l18.1-66.2l-7.9-5.5L265.7,227.4z"/>
	</g>
</g>
</svg>
