<?xml version="1.0" encoding="utf-8"?>
<!-- Generator: Adobe Illustrator 27.5.0, SVG Export Plug-In . SVG Version: 6.00 Build 0)  -->
<svg version="1.1" id="Layer_1" xmlns="http://www.w3.org/2000/svg" xmlns:xlink="http://www.w3.org/1999/xlink" x="0px" y="0px"
	 viewBox="0 0 200 42" style="enable-background:new 0 0 200 42;" xml:space="preserve">
<style type="text/css">
	.st0{filter:url(#a);}
	.st1{fill-rule:evenodd;clip-rule:evenodd;fill:#FFFFFF;}
	.st2{mask:url(#b_00000023264519162852646620000007366322566990952334_);fill-rule:evenodd;clip-rule:evenodd;fill:#FAF7DC;}
	.st3{mask:url(#b_00000033369996617389603100000008201187184864429499_);fill-rule:evenodd;clip-rule:evenodd;fill:#FAF7DC;}
	.st4{mask:url(#b_00000024721027312361538750000012420975320467824033_);fill-rule:evenodd;clip-rule:evenodd;fill:#FAF7DC;}
</style>
<filter  filterUnits="userSpaceOnUse" height="42" id="a" width="200" x="0" y="0">
	<feColorMatrix  values="1 0 0 0 0 0 1 0 0 0 0 0 1 0 0 0 0 0 1 0"></feColorMatrix>
</filter>
<defs>
	<filter id="Adobe_OpacityMaskFilter" filterUnits="userSpaceOnUse" x="-0.7" y="-0.4" width="201.4" height="42.4">
		<feColorMatrix  type="matrix" values="1 0 0 0 0  0 1 0 0 0  0 0 1 0 0  0 0 0 1 0"/>
	</filter>
</defs>
<mask maskUnits="userSpaceOnUse" x="-0.7" y="-0.4" width="201.4" height="42.4" id="b_00000023264519162852646620000007366322566990952334_">
	<g class="st0">
		<path class="st1" d="M-0.7,0h201.4v42H-0.7V0z"/>
	</g>
</mask>
<path class="st2" d="M68.6,19.2c-0.3,0-0.5-0.1-0.7-0.2c-0.5-0.2-0.6-0.6-0.7-1.1c0-0.4,0.4-0.9,0.8-0.9c0.6,0,1.2,0,1.8-0.1
	c0.7,0,1.3-0.1,1.9-0.4c0.6-0.2,1-0.7,1.1-1.3c0.1-0.4,0.1-0.9,0.1-1.4c0.1-0.6,0.6-1.1,1.1-1.2c0.8-0.1,1.6-0.3,2.3-0.3
	c2.2,0,4.4,0.1,6.6,0.2c1.3,0.3,2.3,0.9,2.8,2.2c0.2,0.7,0.4,1.4,0.4,2.1c0.1,1.9,0.1,5.9,0.2,5.9v3.8c-0.1,1.7-0.5,3.7-2.6,3.7
	c-1.9,0-2.6-2.2-2.6-3.4c0-1.5,0.1-3.1,0.1-4.6c0-0.5-0.1-1-0.2-1.5c-0.1-0.6-0.6-1-1.2-1.2c-0.7-0.2-1.4-0.2-2.1-0.2h-7.5
	C69.8,19.2,69.2,19.2,68.6,19.2 M6.2,19.1c-1.3,0-2.6-0.1-3.9,0h-3V42h201.4V19.1h-5.1c0,0-1.4,0.1-1.4,1.3c0,1.4,0,2.8-0.1,4.3
	c0,0.5-0.1,0.9-0.2,1.3c-0.1,0.3-0.3,0.6-0.4,0.9c-0.3,0.4-0.7,0.6-1.2,0.6c-0.9,0-1.8,0.1-2.7,0.1h-2.7c-0.3,0-0.7,0-1-0.1
	c-0.7-0.1-1.3-0.6-1.4-1.2c-0.2-1.2-0.3-2.5-0.1-3.7c0.1-0.4,0.3-0.7,0.7-0.8c0.4-0.1,0.8,0,1.1,0.3c0.1,0.1,0.2,0.3,0.3,0.5
	l0.3,1.5c0.1,0.6,0.6,1,1.2,1.1h0.2c2,0.2,2.5-0.8,2.7-2.1c0.2-1,0-3.6-0.1-4.9c-0.4-0.7-1-1.3-1.8-1.6c-0.9-0.3-1.7-0.5-2.7-0.5
	c-0.9,0-1.8,0-2.7-0.1c-0.6,0-1-0.3-1.2-0.8c-0.5-1.1,0.1-2.2,1.3-2.3h3.9c1.5,0,1.9-0.2,3.1-1.5c1-0.7,1.8-0.4,2.6-0.3
	c0.9,0.1,1.3,0.9,1.6,1.7c0.2,0.5,0.3,1,0.4,1.5c0.1,0.4,0.2,0.7,0.4,1.1c0.1,0.3,0.7,0.6,1.1,0.6c0.5,0,1-0.5,1.1-1
	c0.2-1.2,0.1-2.3,0-3.5c-0.1-0.5-0.2-1-0.4-1.5c-0.4-1-1.1-1.6-2.1-1.8c-0.6-0.1-1.3-0.1-1.9-0.2c-0.5,0-1,0-1.6-0.1
	c-0.6-0.1-0.9-0.4-1-1V6.1c0-1-0.3-2.1-0.8-3c-0.3-0.6-0.8-0.9-1.4-1c-0.5,0-1-0.1-1.6-0.1h-3.7c-0.5,0-0.8,0.3-1,0.8
	c0,0.1-0.1,0.3-0.1,0.4c0,0.5,0.3,1,0.7,1c0.4,0.1,0.9,0.1,1.4,0.1c0.6,0.1,1.2,0.1,1.7,0.2c0.9,0.2,1.3,0.8,1.5,1.6v0.5
	c0,0.4,0,0.8-0.1,1.2c-0.1,1-0.7,1.7-1.7,1.9c-0.7,0.2-1.4,0.2-2.1,0.3c-0.7,0.1-1.4,0.1-2.1,0.1c-1.1,0-1.8,0.7-2.2,1.6
	c-0.2,0.4-0.3,0.9-0.4,1.3c-0.1,0.7-0.1,1.4-0.1,2.1v0.1c0,2.3,0,6.7-0.1,7.4c0,0.3-0.1,0.6-0.2,0.9c-0.4,1-1.5,1.2-2.2,0.6
	c-0.3-0.2-0.5-0.5-0.7-0.9l-0.3-1.2v-1.2c0-0.3-0.1-0.6-0.1-1c-0.2-1-0.8-1.6-1.7-1.9c-0.6-0.2-1.1-0.2-1.7-0.2h-2
	c-0.5,0-1.4,0.1-1.9,0c-0.5,0-0.7-0.4-0.8-0.8c0-0.4-0.1-0.9,0.1-1.2c0.4-0.7,1-1.1,1.9-1.1c1.1-0.1,2.2-0.2,3.3-0.4
	c0.7-0.1,1.4-0.2,2-0.5c0.7-0.2,1.1-0.7,1.2-1.4c0.1-0.4,0.1-0.8,0.1-1.2c0.2-3.1,0.2-5.5,0-8.6c0-0.6-0.2-1.1-0.4-1.7
	c-0.2-0.5-0.6-0.9-1.2-1c-1.4-0.3-8.2-0.2-9.6,0c-0.7,0.1-1.1,0.6-1.1,1.2c0,0.7,0.6,1.3,1.1,1.4c0.2,0.1,0.5,0.1,0.7,0.1
	c0.4,0,6,0,6.4,0.1c0.7,0.1,1.1,0.6,1.2,1.3v0.7c0,0.6-0.3,0.9-1,1h-4.6c-1.2,0-0.5,0.1-1.7,0.1c-0.5,0-0.9,0-1.4,0.1
	c-0.7,0.1-1.1,1.2-0.7,1.8c0.1,0.1,0.2,0.3,0.4,0.3c0.5,0.1,1,0.2,1.5,0.2c1.5,0,1.1,0.1,2.6,0c1-0.1,2.1,0,3.1,0.1
	c0.5,0,0.9,0.1,1.4,0.2c0.2,0,0.4,0.2,0.5,0.5c0.2,0.7,0.1,0.7-0.1,1.4c-0.1,0.4-0.4,0.7-0.8,0.8c-0.3,0.1-0.6,0.1-0.9,0.1
	c-1.4,0.2-2.8,0.3-4.1,0.7c-0.7,0.2-1.4,0.4-2.2,0.7c-0.3,0.1-0.5,0.3-0.6,0.6c-0.2,0.7-0.4,1.3-0.4,2V16c-0.2,2.1-0.8,1.8-2.5,1.8
	H161c-0.4-0.1-0.7-0.3-0.9-0.7c-0.1-0.2-0.1-0.3-0.2-0.5c-0.1-0.7-0.1-1.7-0.1-2.1c-0.1-1.3-0.1-2.6-0.2-4c0-0.5-0.1-0.9-0.1-1.4
	c-0.1-0.5-0.4-0.8-0.9-0.9c-0.4-0.1-1,0.2-1.1,0.6c-0.1,0.2-0.1,0.3-0.2,0.5c-0.1,0.2-0.1,0.5-0.1,0.7v8.3c0,0.6-0.5,1-1.2,1h-2.5
	c-3.4,0.1-4.7,0.1-8.2,0.2c-0.6,0-1.2,0.1-1.7,0.3c-0.4,0.2-0.6,0.5-0.6,0.9c0,0.5,0.1,0.9,0.4,1.3c0.2,0.3,0.5,0.5,0.8,0.5
	c0.4,0.1,0.8,0.1,1.2,0.1h9.9c0.4,0,0.9,0.1,1.3,0.2c0.5,0.2,0.9,0.6,1,1.1v0.2c0.1,1.4,0.1,2.9,0,4.3c0,0.5-0.4,0.8-0.9,0.8
	c-0.8,0-1.1-0.3-1.3-0.9c-0.1-0.3-0.1-0.6-0.2-1c-0.1-0.4-0.2-0.8-0.3-1.1c-0.2-0.5-0.6-0.9-1.2-0.9c-0.6-0.1-1.3,0-2,0
	c-0.5,0-0.8,0.3-0.9,0.9s-0.1,1.3-0.2,1.9c0,0.3-0.1,0.6-0.2,1c-0.1,0.3-0.3,0.5-0.6,0.5c-0.3,0-0.6,0.1-1,0c-0.4,0-0.7-0.3-0.8-0.7
	c-0.2-0.6-0.3-1.3-0.4-1.9c-0.1-0.3-0.1-0.6-0.3-0.9c-0.1-0.2-0.3-0.3-0.4-0.4c-0.4-0.1-0.8-0.1-1.2-0.1h-2.7
	c-0.7,0-1.3-0.1-1.9-0.3c-0.7-0.3-1.2-0.7-1.4-1.5c-0.1-0.4-0.2-0.9-0.2-1.3v-5.4c0.1-0.6,0.5-1,1-1.1h8.9c0.6,0,1.2,0,1.8-0.1
	c0.3,0,0.5-0.1,0.8-0.2c0.4-0.1,0.7-0.4,0.8-0.8c0.1-0.6,0.2-1.2,0.3-1.7c0.1-2,0.2-4,0.3-6.1c0-0.7-0.1-1.4-0.2-2.1
	c-0.1-0.7-0.5-1.1-1.2-1.2c-1.6-0.2-3.2-0.3-4.9-0.1c-0.5,0.1-0.8,0.4-0.9,0.9c-0.1,0.5,0.2,1.1,0.6,1.3c0.4,0.1,0.7,0.2,1.1,0.4
	c0.4,0.1,0.8,0.2,1.1,0.4c0.6,0.3,1,0.8,1.1,1.5c0.1,0.9,0,1.8-0.2,2.7c-0.2,0.8-0.7,1.4-1.5,1.7c-0.5,0.2-1,0.2-1.5,0.1
	c-0.2,0-0.4-0.2-0.4-0.3c-0.1-0.4-0.1-0.8-0.2-1.2c-0.1-0.5-0.1-1-0.2-1.5c-0.1-0.6-0.5-0.9-1.1-0.9h-0.6c-0.3,0.1-0.6,0.3-0.7,0.6
	c-0.1,0.3-0.1,0.6-0.1,1l-0.3,1.5c-0.1,0.6-0.5,0.9-1.1,0.9c-1.1,0-2.2,0.1-3.3,0.1h-1.6c-0.7,0-1.2,0.5-1.3,1.2
	c-0.1,0.8-0.1,1.6-0.2,2.3c0,0.7,0,1.7-0.1,2.4c0,0.3-0.1,0.6-0.3,0.9c-0.1,0.2-0.3,0.4-0.6,0.5c-0.4,0.1-0.9,0.1-1.4,0.1
	c-0.8,0-1.3-0.5-1.4-1.4c-0.1-0.7-0.1-1.4-0.2-2.2v-5.3c0-0.5,0-1-0.1-1.6c-0.1-0.7-0.5-1.2-1.2-1.4c-0.2-0.1-0.5-0.2-0.8-0.2
	c-0.5-0.1-1.1,0.3-1.2,0.8c-0.2,0.7-0.2,1.4-0.2,2.1v2.5c0,0.5-0.5,0.9-1,0.9h-0.4c-0.3,0-0.7-0.1-1-0.1c-0.8,0-1.3-0.4-1.6-1.2
	c-0.3-0.7-0.4-1.4-0.4-2.1V8.6c0-1-0.3-2.1-0.8-3c-0.3-0.6-0.8-0.9-1.4-1c-0.5,0-1-0.1-1.6-0.1H116c-0.5,0-0.8,0.3-1,0.8
	c0,0.1-0.1,0.3-0.1,0.4c0,0.5,0.3,0.9,0.7,1c0.4,0.1,0.9,0.1,1.4,0.1c0.6,0.1,1.2,0.1,1.7,0.2c0.9,0.2,1.3,0.8,1.5,1.6v0.2
	c0,1,0.1,2,0.1,2.9c0,0.2-0.2,0.5-0.5,0.6c-0.3,0.1-0.5,0.1-0.8,0.2c-0.5,0.1-1,0.1-1.6,0.1c-1.2,0.2-2,0.9-2.2,2.1
	c-0.1,0.7-0.1,1.4-0.1,2.1s0.1,1.4,0.3,2.1c0.2,0.5,0.5,0.7,1.1,0.7s1.1-0.4,1.2-0.8s0.1-0.9,0.2-1.4c0.2-1.4,0.6-1.7,2.1-1.7
	c0.2,0,0.5,0.1,0.7,0.3c0.3,0.2,0.6,0.5,0.8,0.8c0.5,0.5,1,0.8,1.7,0.9c0.8,0.1,1.7,0.1,2.5,0.2c0.3,0,0.6,0,1,0.1
	c0.3,0.1,0.5,0.3,0.5,0.5c0.2,1,0.2,2.1-0.1,3.1c-0.1,0.2-0.3,0.5-0.5,0.6c-0.3,0.2-0.7,0.3-1.1,0.4c-1.5,0.3-2.9,0.5-4.5,0.5h-0.9
	c-0.2,0-0.4,0.1-0.6,0.1c-0.5,0.1-0.8,0.4-0.9,0.9c0,0.1-0.1,0.3-0.1,0.4c-0.1,1-0.3,0.8-0.3,1.9c-0.1,1-0.1,2.1-0.1,3.1
	c0,0.7-0.1,1.4-0.4,2.1c-0.2,0.4-0.5,0.6-0.9,0.7c-0.8,0.1-1.6-0.5-1.7-1.2c0-0.5-0.1-1-0.1-1.6c0-1.8,0-2.3-0.1-4.1
	c-0.1-1.3-0.5-2-1.5-2.3c-0.8,0-1.6,0.1-2.5,0.1c-0.4,0-0.8,0.1-1.2,0.1c-1.2,0-2.1,0.6-2.7,1.7c-0.5,1-1,2-1.5,2.9
	c-0.2,0.5-0.5,0.9-0.7,1.4c-0.5,0.9-1.3,1.3-2.3,1.1c-0.3,0-0.6-0.2-0.7-0.6s-0.2-0.8-0.2-1.1v-2.9c0.1-1.4,0.2-2.7,0.3-4.1
	c0-0.5,0.2-1,0.5-1.5c0.4-0.7,1-1.2,1.9-1.2c1.2-0.1,2.5-0.3,3.7-0.4c0.8-0.1,1.7-0.3,2.5-0.6c0.6-0.2,1-0.7,1.1-1.3
	c0.1-0.4,0.2-0.8,0.2-1.2c0.3-3.7,0.2-7.3,0-11c0-0.7-0.2-1.3-0.5-1.9c-0.2-0.5-0.7-0.8-1.2-0.9c-1.6-0.3-3.2-0.2-4.9,0
	c-0.8,0.1-1.3,0.7-1.3,1.3c0,0.9,0.7,1.5,1.2,1.6s1,0.1,1.6,0.1c1.5,0,2,0.9,1.9,2.1v0.6c0,0.3-0.3,0.6-0.6,0.7
	c-0.5,0-0.9,0.1-1.4,0.1H102c-1.2,0-2.7,0.1-4.1,0.1c-0.5,0-0.9,0.1-1.4,0.1c-0.5,0.1-0.8,0.4-0.9,0.9c0,0.3-0.1,0.5,0,0.8
	c0,0.3,0.3,0.6,0.6,0.7c0.2,0.1,0.5,0.2,0.8,0.2c0.5,0.1,1,0.1,1.6,0.1c2.5,0,5.1,0.2,7.7,0.1c0.6,0,1.3,0.1,1.9,0.2
	c0.3,0,0.6,0.4,0.6,0.7v1.8c-0.1,0.7-0.6,1.3-1.4,1.4c-1.1,0.2-2.2,0.3-3.3,0.4c-1.4,0.2-2.8,0.5-4.2,1.1c-0.5,0.2-0.8,0.5-0.9,0.9
	c-0.2,0.7-0.4,1.5-0.4,2.3c-0.1,2.9,0,1.6-0.1,4.5c0,0.5-0.1,0.9-0.1,1.4c-0.1,0.3-0.5,0.7-0.8,0.7L92,26.5c-0.9,0-1.5-0.4-2-1.1
	c-0.2-0.3-0.4-0.6-0.4-0.9c-0.1-1-0.1-2-0.1-2.9c0-0.7,0.6-1.3,1.4-1.4c0.8-0.1,1.6-0.1,2.3-0.1c0.4,0,0.8,0,1.2-0.1
	c1.1-0.1,1.7-0.9,1.5-2c0-0.2-0.1-0.4-0.2-0.6c-0.2-0.5-0.6-0.9-1.1-0.9c-0.6-0.1-1.2-0.1-1.8-0.1s-1.2,0-1.8-0.1
	c-1.3-0.1-2-1.1-2-2c0-0.6-0.1-1.2-0.1-1.8c0-0.5-0.1-1-0.2-1.6c-0.2-1.4-1.1-2.2-2.4-2.5c-0.9-0.2-1.8-0.2-2.7-0.2
	c-0.8,0-1.6,0-2.3-0.1c-0.5,0-0.8-0.4-1-0.8C80.2,6.9,80.1,6.4,80,6c0.2,0,0.2-1,0.1-2c-0.1-0.9-0.8-1.7-1.8-1.8h-0.4
	c-1.2,0-2.3,0.1-3.5,0.2c-0.8,0.1-1.2,0.7-1,1.6c0.1,0.4,0.4,0.7,0.8,0.8c0.5,0.2,1,0.2,1.5,0.4c0.6,0.1,0.9,0.5,0.9,1.1
	c0,0.5,0,0.9-0.1,1.4s-0.3,0.9-0.7,1.1c-0.1,0.1-0.3,0.2-0.5,0.3c-0.3,0.1-0.7,0-1,0.1h-3.5c-0.7,0.1-1.2,0.6-1.3,1.2
	c0,0.3-0.1,0.5-0.1,0.8v1.2c0,0.9-0.1,1.3-1.3,1.6c-0.3,0.1-0.6,0.1-1,0.1c-0.6,0-1-0.3-1.2-0.9c-0.2-0.4-0.3-0.9-0.4-1.3
	c-0.1-0.2-0.1-0.5-0.3-0.7c-0.2-0.5-0.6-0.9-1.2-0.9c-1.9-0.1-3.8-0.3-5.7-0.2c-0.5,0-0.9,0.1-1.3,0.3c-0.4,0.1-0.8,0.5-0.9,1
	c-0.3,1.1-0.3,2.2-0.1,3.3c0.1,0.5,0.7,0.8,1.2,0.7c0.3-0.1,0.6-0.2,0.8-0.5c0.2-0.2,0.3-0.4,0.4-0.7c0.4-0.6,0.9-0.9,1.6-0.9
	c0.5,0,0.9,0,1.4,0.1s1,0.4,1.2,0.9c0.3,0.9,0.6,1.9,0.8,2.8c0.4,1.2,0.8,2.5,1.1,3.7c0.2,0.7,0.7,1.1,1.3,1.3
	c0.8,0.3,1.5,0.3,2.3,0.4c0.5,0.1,1,0.5,1,1c0,0.6,0.1,1.2-0.1,1.8c-0.2,0.7-0.6,1.2-1.3,1.4c-0.9,0.2-1.8,0.4-2.7,0.4
	c-0.9,0-1.8,0-2.7,0.1c-1.1,0.1-2,0.9-2.1,2c-0.1,0.8-0.2,1.7-0.2,2.5v0.8c-0.2,1.4-0.8,2.2-1.8,2.2c-0.7,0-1.9-0.5-1.9-2.3v-0.2
	L56,30.5v-0.2c0-1.2-0.6-1.9-1.6-2.4l-0.9-0.3c-1.2-0.4-2.2-1-3.3-1.7c-0.7-0.4-1-1-1.1-1.8c-0.1-0.7,0.3-1.5,1-1.7
	c0.3-0.1,0.6-0.2,1-0.2h3.1c0.8,0,1.4,0.4,1.7,1.1c0.2,0.5,0.4,1.1,0.6,1.7c0.3,0.9,1.2,1.2,2.1,0.7c0.2-0.1,0.4-0.3,0.5-0.6
	c0.2-1.2,0.2-2.5,0-3.7c-0.2-1.4-1.3-2.3-2.7-2.4c-1-0.1-2-0.1-2.9-0.1c-1.2-0.1-2.5-0.1-3.7-0.2c-0.4,0-0.8-0.5-0.8-0.9v-2
	c0-0.3,0-0.5-0.1-0.8c-0.3-1.2-1.4-1.7-2.6-1.3c-0.2,0.1-0.4,0.3-0.5,0.6c-0.2,0.4-0.3,0.7-0.3,1.1c-0.1,1.2-0.2,2.5-0.1,3.7
	c0,1.7,0.1,3.4,0.1,5.1c0,0.4,0.1,0.8,0.1,1.2c0,1.2,0.6,2.1,1.7,2.7c1,0.5,2,1,2.9,1.5c0.5,0.2,0.9,0.5,1.4,0.7
	c0.9,0.5,1.3,1.3,1.1,2.3c0,0.3-0.2,0.6-0.6,0.7c-0.4,0.1-0.8,0.2-1.1,0.2H48c-1.4-0.1-2.7-0.2-4.1-0.3c-0.5,0-1-0.2-1.5-0.5
	c-0.7-0.4-1.2-1-1.2-1.9c-0.1-1.2-0.3-2.5-0.4-3.7c-0.1-0.9-0.3-1.7-0.6-2.5c-0.2-0.6-0.7-1-1.3-1.1c-0.4-0.1-0.8-0.2-1.2-0.2
	c-3.7-0.3-7.4-0.2-11,0c-0.7,0-1.3,0.2-1.9,0.5C24.3,24,24,24.4,23.9,25c-0.2,0.9-0.2,1.7-0.2,2.6c0,1.5-1.2,2-1.7,2
	c-0.7,0-1.3-1.5-1.3-2.1c0-0.4,0-2.3,0.1-3.6l0.2-2.1c0-0.4,0-0.8,0.1-1.2c0.1-0.8,0.5-1,1.2-1.1c2.8-0.3,5.6-0.3,8.5-0.2h7.8
	c0.5,0,1-0.2,1.5-0.5c0.6-0.3,1-0.9,1.1-1.6V8.4c0-0.3,0-0.5-0.1-0.8c0-0.2-0.1-0.4-0.2-0.5c-0.2-0.4-0.8-0.8-1.3-0.7
	c-0.5,0.1-1,0.5-1,1c-0.1,0.5-0.1,1-0.2,1.6c-0.1,1.5-0.2,3-0.2,4.5c0,0.7-0.1,1.3-0.3,1.9c-0.2,0.5-0.5,0.8-1,0.9
	c-0.3,0.1-0.6,0.2-1,0.1c-0.6,0-1.3-0.1-1.9-0.2c-0.4-0.1-0.6-0.3-0.7-0.6c-0.1-0.3-0.2-0.6-0.2-1c0-1-0.1-2-0.1-2.9
	c-0.1-1.4-0.2-2.7-0.3-4.1c0-0.4-0.3-0.7-0.7-0.8c-0.1,0-0.2-0.1-0.4-0.1c-0.6-0.1-1.2,0.2-1.4,0.7c-0.1,0.4-0.2,0.8-0.2,1.1v2.2
	c0,1.1,0,2.2-0.1,3.3c0,0.5-0.1,1-0.3,1.5c-0.1,0.6-0.6,0.9-1.1,1c-0.5,0.1-1,0.1-1.6,0c-0.6-0.1-1.2-0.7-1.2-1.3v-0.6
	c0.2-1.1,0-2.1-0.1-3.1c-0.1-0.8-0.7-1.3-1.4-1.3h-0.8c-1.8,0.1-3.5,0.1-5.3,0.2c-0.5,0-0.9,0-1.4,0.1c-0.2,0-0.4,0.1-0.5,0.3
	c-0.6,0.6-0.4,2,0.4,2.4c0.3,0.1,0.6,0.2,0.9,0.2c0.6,0,1.2,0.1,1.8,0c0.9-0.2,1.7,0.1,2.5,0.3c0.3,0.1,0.4,0.3,0.5,0.6
	c0.1,0.4,0.2,0.8,0.1,1.2c-0.1,0.5-0.4,0.9-0.9,0.9c-0.5,0.1-0.9,0.1-1.4,0.1c-0.3,0-0.6,0.1-1,0.2c-0.9,0.2-1.5,0.9-1.5,1.8v1.2
	c0.1,1.5-0.2,3-0.2,4.5c0,0.4-0.3,0.7-0.6,0.9c-0.3,0.1-0.6,0.3-0.9,0.3c-0.6,0.1-1.2,0.1-1.8,0.1H4.7c-1.5,0-1.9-0.9-2-1.1v-0.8
	c0-0.3,0.6-1.2,2-1.2h3.9c0.7,0,1.4-0.2,2.1-0.5c1-0.4,1.5-1,1.5-2.1c0-2,0.1-3.9,0.1-5.9c0-1.2-0.1-2.5-0.1-3.7
	c0-1.6,0.2-3.1,0.3-4.7c0.3-1,0.8-1.5,1.5-1.5h2.5c0.7,0,1.3,0.4,1.6,1c0.3,0.5,0.4,1.1,0.6,1.6C19,7.1,19.4,7.4,20,7.5
	c0.5,0,1,0,1.5-0.3C22,7,22.2,6.7,22.2,6.3c0-1,0-2-0.1-2.9c-0.2-1.3-1-2.3-2.3-2.7c-0.2-0.1-0.5-0.1-0.8-0.2
	c-1.7-0.1-3.4-0.3-5.1-0.4c-0.7,0-1.4,0.1-2.1,0.3c-0.7,0.2-1.2,0.5-1.6,1.1c-0.4,0.6-0.7,1.3-0.8,2c0.1,0.4,0,0.9,0,1.3v4.9
	c0,0.7-0.4,1.2-1.2,1.4l-2.1,0.3c-1,0.1-2.1,0-3.1,0.1c-0.4,0-0.8,0-1.2,0.1c-0.6,0-1.1,0.4-1.3,1.1c-0.1,0.3,0,0.5,0.1,0.7
	c0.4,0.6,1,1,1.8,1c1.5,0,3,0,4.5,0.1c0.6,0,1.2,0.1,1.8,0.1c0.4,0,0.7,0.4,0.7,0.8v1C9,18.8,9.2,19.2,6.2,19.1"/>
<defs>
	
		<filter id="Adobe_OpacityMaskFilter_00000095307139990701377690000008699432585591434423_" filterUnits="userSpaceOnUse" x="-0.7" y="-0.4" width="201.4" height="42.4">
		<feColorMatrix  type="matrix" values="1 0 0 0 0  0 1 0 0 0  0 0 1 0 0  0 0 0 1 0"/>
	</filter>
</defs>
<mask maskUnits="userSpaceOnUse" x="-0.7" y="-0.4" width="201.4" height="42.4" id="b_00000033369996617389603100000008201187184864429499_">
	<g class="st0">
		<path class="st1" d="M-0.7,0h201.4v42H-0.7V0z"/>
	</g>
</mask>
<path class="st3" d="M68.6,19.2c-0.3,0-0.5-0.1-0.7-0.2c-0.5-0.2-0.6-0.6-0.7-1.1c0-0.4,0.4-0.9,0.8-0.9c0.6,0,1.2,0,1.8-0.1
	c0.7,0,1.3-0.1,1.9-0.4c0.6-0.2,1-0.7,1.1-1.3c0.1-0.4,0.1-0.9,0.1-1.4c0.1-0.6,0.6-1.1,1.1-1.2c0.8-0.1,1.6-0.3,2.3-0.3
	c2.2,0,4.4,0.1,6.6,0.2c1.3,0.3,2.3,0.9,2.8,2.2c0.2,0.7,0.4,1.4,0.4,2.1c0.1,1.9,0.1,5.9,0.2,5.9v3.8c-0.1,1.7-0.5,3.7-2.6,3.7
	c-1.9,0-2.6-2.2-2.6-3.4c0-1.5,0.1-3.1,0.1-4.6c0-0.5-0.1-1-0.2-1.5c-0.1-0.6-0.6-1-1.2-1.2c-0.7-0.2-1.4-0.2-2.1-0.2h-7.5
	C69.8,19.2,69.2,19.2,68.6,19.2 M6.2,19.1c-1.3,0-2.6-0.1-3.9,0h-3V42h201.4V19.1h-5.1c0,0-1.4,0.1-1.4,1.3c0,1.4,0,2.8-0.1,4.3
	c0,0.5-0.1,0.9-0.2,1.3c-0.1,0.3-0.3,0.6-0.4,0.9c-0.3,0.4-0.7,0.6-1.2,0.6c-0.9,0-1.8,0.1-2.7,0.1h-2.7c-0.3,0-0.7,0-1-0.1
	c-0.7-0.1-1.3-0.6-1.4-1.2c-0.2-1.2-0.3-2.5-0.1-3.7c0.1-0.4,0.3-0.7,0.7-0.8c0.4-0.1,0.8,0,1.1,0.3c0.1,0.1,0.2,0.3,0.3,0.5
	l0.3,1.5c0.1,0.6,0.6,1,1.2,1.1h0.2c2,0.2,2.5-0.8,2.7-2.1c0.2-1,0-3.6-0.1-4.9c-0.4-0.7-1-1.3-1.8-1.6c-0.9-0.3-1.7-0.5-2.7-0.5
	c-0.9,0-1.8,0-2.7-0.1c-0.6,0-1-0.3-1.2-0.8c-0.5-1.1,0.1-2.2,1.3-2.3h3.9c1.5,0,1.9-0.2,3.1-1.5c1-0.7,1.8-0.4,2.6-0.3
	c0.9,0.1,1.3,0.9,1.6,1.7c0.2,0.5,0.3,1,0.4,1.5c0.1,0.4,0.2,0.7,0.4,1.1c0.1,0.3,0.7,0.6,1.1,0.6c0.5,0,1-0.5,1.1-1
	c0.2-1.2,0.1-2.3,0-3.5c-0.1-0.5-0.2-1-0.4-1.5c-0.4-1-1.1-1.6-2.1-1.8c-0.6-0.1-1.3-0.1-1.9-0.2c-0.5,0-1,0-1.6-0.1
	c-0.6-0.1-0.9-0.4-1-1V6.1c0-1-0.3-2.1-0.8-3c-0.3-0.6-0.8-0.9-1.4-1c-0.5,0-1-0.1-1.6-0.1h-3.7c-0.5,0-0.8,0.3-1,0.8
	c0,0.1-0.1,0.3-0.1,0.4c0,0.5,0.3,1,0.7,1c0.4,0.1,0.9,0.1,1.4,0.1c0.6,0.1,1.2,0.1,1.7,0.2c0.9,0.2,1.3,0.8,1.5,1.6v0.5
	c0,0.4,0,0.8-0.1,1.2c-0.1,1-0.7,1.7-1.7,1.9c-0.7,0.2-1.4,0.2-2.1,0.3c-0.7,0.1-1.4,0.1-2.1,0.1c-1.1,0-1.8,0.7-2.2,1.6
	c-0.2,0.4-0.3,0.9-0.4,1.3c-0.1,0.7-0.1,1.4-0.1,2.1v0.1c0,2.3,0,6.7-0.1,7.4c0,0.3-0.1,0.6-0.2,0.9c-0.4,1-1.5,1.2-2.2,0.6
	c-0.3-0.2-0.5-0.5-0.7-0.9l-0.3-1.2v-1.2c0-0.3-0.1-0.6-0.1-1c-0.2-1-0.8-1.6-1.7-1.9c-0.6-0.2-1.1-0.2-1.7-0.2h-2
	c-0.5,0-1.4,0.1-1.9,0c-0.5,0-0.7-0.4-0.8-0.8c0-0.4-0.1-0.9,0.1-1.2c0.4-0.7,1-1.1,1.9-1.1c1.1-0.1,2.2-0.2,3.3-0.4
	c0.7-0.1,1.4-0.2,2-0.5c0.7-0.2,1.1-0.7,1.2-1.4c0.1-0.4,0.1-0.8,0.1-1.2c0.2-3.1,0.2-5.5,0-8.6c0-0.6-0.2-1.1-0.4-1.7
	c-0.2-0.5-0.6-0.9-1.2-1c-1.4-0.3-8.2-0.2-9.6,0c-0.7,0.1-1.1,0.6-1.1,1.2c0,0.7,0.6,1.3,1.1,1.4c0.2,0.1,0.5,0.1,0.7,0.1
	c0.4,0,6,0,6.4,0.1c0.7,0.1,1.1,0.6,1.2,1.3v0.7c0,0.6-0.3,0.9-1,1h-4.6c-1.2,0-0.5,0.1-1.7,0.1c-0.5,0-0.9,0-1.4,0.1
	c-0.7,0.1-1.1,1.2-0.7,1.8c0.1,0.1,0.2,0.3,0.4,0.3c0.5,0.1,1,0.2,1.5,0.2c1.5,0,1.1,0.1,2.6,0c1-0.1,2.1,0,3.1,0.1
	c0.5,0,0.9,0.1,1.4,0.2c0.2,0,0.4,0.2,0.5,0.5c0.2,0.7,0.1,0.7-0.1,1.4c-0.1,0.4-0.4,0.7-0.8,0.8c-0.3,0.1-0.6,0.1-0.9,0.1
	c-1.4,0.2-2.8,0.3-4.1,0.7c-0.7,0.2-1.4,0.4-2.2,0.7c-0.3,0.1-0.5,0.3-0.6,0.6c-0.2,0.7-0.4,1.3-0.4,2V16c-0.2,2.1-0.8,1.8-2.5,1.8
	H161c-0.4-0.1-0.7-0.3-0.9-0.7c-0.1-0.2-0.1-0.3-0.2-0.5c-0.1-0.7-0.1-1.7-0.1-2.1c-0.1-1.3-0.1-2.6-0.2-4c0-0.5-0.1-0.9-0.1-1.4
	c-0.1-0.5-0.4-0.8-0.9-0.9c-0.4-0.1-1,0.2-1.1,0.6c-0.1,0.2-0.1,0.3-0.2,0.5c-0.1,0.2-0.1,0.5-0.1,0.7v8.3c0,0.6-0.5,1-1.2,1h-2.5
	c-3.4,0.1-4.7,0.1-8.2,0.2c-0.6,0-1.2,0.1-1.7,0.3c-0.4,0.2-0.6,0.5-0.6,0.9c0,0.5,0.1,0.9,0.4,1.3c0.2,0.3,0.5,0.5,0.8,0.5
	c0.4,0.1,0.8,0.1,1.2,0.1h9.9c0.4,0,0.9,0.1,1.3,0.2c0.5,0.2,0.9,0.6,1,1.1v0.2c0.1,1.4,0.1,2.9,0,4.3c0,0.5-0.4,0.8-0.9,0.8
	c-0.8,0-1.1-0.3-1.3-0.9c-0.1-0.3-0.1-0.6-0.2-1c-0.1-0.4-0.2-0.8-0.3-1.1c-0.2-0.5-0.6-0.9-1.2-0.9c-0.6-0.1-1.3,0-2,0
	c-0.5,0-0.8,0.3-0.9,0.9s-0.1,1.3-0.2,1.9c0,0.3-0.1,0.6-0.2,1c-0.1,0.3-0.3,0.5-0.6,0.5c-0.3,0-0.6,0.1-1,0c-0.4,0-0.7-0.3-0.8-0.7
	c-0.2-0.6-0.3-1.3-0.4-1.9c-0.1-0.3-0.1-0.6-0.3-0.9c-0.1-0.2-0.3-0.3-0.4-0.4c-0.4-0.1-0.8-0.1-1.2-0.1h-2.7
	c-0.7,0-1.3-0.1-1.9-0.3c-0.7-0.3-1.2-0.7-1.4-1.5c-0.1-0.4-0.2-0.9-0.2-1.3v-5.4c0.1-0.6,0.5-1,1-1.1h8.9c0.6,0,1.2,0,1.8-0.1
	c0.3,0,0.5-0.1,0.8-0.2c0.4-0.1,0.7-0.4,0.8-0.8c0.1-0.6,0.2-1.2,0.3-1.7c0.1-2,0.2-4,0.3-6.1c0-0.7-0.1-1.4-0.2-2.1
	c-0.1-0.7-0.5-1.1-1.2-1.2c-1.6-0.2-3.2-0.3-4.9-0.1c-0.5,0.1-0.8,0.4-0.9,0.9c-0.1,0.5,0.2,1.1,0.6,1.3c0.4,0.1,0.7,0.2,1.1,0.4
	c0.4,0.1,0.8,0.2,1.1,0.4c0.6,0.3,1,0.8,1.1,1.5c0.1,0.9,0,1.8-0.2,2.7c-0.2,0.8-0.7,1.4-1.5,1.7c-0.5,0.2-1,0.2-1.5,0.1
	c-0.2,0-0.4-0.2-0.4-0.3c-0.1-0.4-0.1-0.8-0.2-1.2c-0.1-0.5-0.1-1-0.2-1.5c-0.1-0.6-0.5-0.9-1.1-0.9h-0.6c-0.3,0.1-0.6,0.3-0.7,0.6
	c-0.1,0.3-0.1,0.6-0.1,1l-0.3,1.5c-0.1,0.6-0.5,0.9-1.1,0.9c-1.1,0-2.2,0.1-3.3,0.1h-1.6c-0.7,0-1.2,0.5-1.3,1.2
	c-0.1,0.8-0.1,1.6-0.2,2.3c0,0.7,0,1.7-0.1,2.4c0,0.3-0.1,0.6-0.3,0.9c-0.1,0.2-0.3,0.4-0.6,0.5c-0.4,0.1-0.9,0.1-1.4,0.1
	c-0.8,0-1.3-0.5-1.4-1.4c-0.1-0.7-0.1-1.4-0.2-2.2v-5.3c0-0.5,0-1-0.1-1.6c-0.1-0.7-0.5-1.2-1.2-1.4c-0.2-0.1-0.5-0.2-0.8-0.2
	c-0.5-0.1-1.1,0.3-1.2,0.8c-0.2,0.7-0.2,1.4-0.2,2.1v2.5c0,0.5-0.5,0.9-1,0.9h-0.4c-0.3,0-0.7-0.1-1-0.1c-0.8,0-1.3-0.4-1.6-1.2
	c-0.3-0.7-0.4-1.4-0.4-2.1V8.6c0-1-0.3-2.1-0.8-3c-0.3-0.6-0.8-0.9-1.4-1c-0.5,0-1-0.1-1.6-0.1H116c-0.5,0-0.8,0.3-1,0.8
	c0,0.1-0.1,0.3-0.1,0.4c0,0.5,0.3,0.9,0.7,1c0.4,0.1,0.9,0.1,1.4,0.1c0.6,0.1,1.2,0.1,1.7,0.2c0.9,0.2,1.3,0.8,1.5,1.6v0.2
	c0,1,0.1,2,0.1,2.9c0,0.2-0.2,0.5-0.5,0.6c-0.3,0.1-0.5,0.1-0.8,0.2c-0.5,0.1-1,0.1-1.6,0.1c-1.2,0.2-2,0.9-2.2,2.1
	c-0.1,0.7-0.1,1.4-0.1,2.1s0.1,1.4,0.3,2.1c0.2,0.5,0.5,0.7,1.1,0.7s1.1-0.4,1.2-0.8s0.1-0.9,0.2-1.4c0.2-1.4,0.6-1.7,2.1-1.7
	c0.2,0,0.5,0.1,0.7,0.3c0.3,0.2,0.6,0.5,0.8,0.8c0.5,0.5,1,0.8,1.7,0.9c0.8,0.1,1.7,0.1,2.5,0.2c0.3,0,0.6,0,1,0.1
	c0.3,0.1,0.5,0.3,0.5,0.5c0.2,1,0.2,2.1-0.1,3.1c-0.1,0.2-0.3,0.5-0.5,0.6c-0.3,0.2-0.7,0.3-1.1,0.4c-1.5,0.3-2.9,0.5-4.5,0.5h-0.9
	c-0.2,0-0.4,0.1-0.6,0.1c-0.5,0.1-0.8,0.4-0.9,0.9c0,0.1-0.1,0.3-0.1,0.4c-0.1,1-0.3,0.8-0.3,1.9c-0.1,1-0.1,2.1-0.1,3.1
	c0,0.7-0.1,1.4-0.4,2.1c-0.2,0.4-0.5,0.6-0.9,0.7c-0.8,0.1-1.6-0.5-1.7-1.2c0-0.5-0.1-1-0.1-1.6c0-1.8,0-2.3-0.1-4.1
	c-0.1-1.3-0.5-2-1.5-2.3c-0.8,0-1.6,0.1-2.5,0.1c-0.4,0-0.8,0.1-1.2,0.1c-1.2,0-2.1,0.6-2.7,1.7c-0.5,1-1,2-1.5,2.9
	c-0.2,0.5-0.5,0.9-0.7,1.4c-0.5,0.9-1.3,1.3-2.3,1.1c-0.3,0-0.6-0.2-0.7-0.6s-0.2-0.8-0.2-1.1v-2.9c0.1-1.4,0.2-2.7,0.3-4.1
	c0-0.5,0.2-1,0.5-1.5c0.4-0.7,1-1.2,1.9-1.2c1.2-0.1,2.5-0.3,3.7-0.4c0.8-0.1,1.7-0.3,2.5-0.6c0.6-0.2,1-0.7,1.1-1.3
	c0.1-0.4,0.2-0.8,0.2-1.2c0.3-3.7,0.2-7.3,0-11c0-0.7-0.2-1.3-0.5-1.9c-0.2-0.5-0.7-0.8-1.2-0.9c-1.6-0.3-3.2-0.2-4.9,0
	c-0.8,0.1-1.3,0.7-1.3,1.3c0,0.9,0.7,1.5,1.2,1.6s1,0.1,1.6,0.1c1.5,0,2,0.9,1.9,2.1v0.6c0,0.3-0.3,0.6-0.6,0.7
	c-0.5,0-0.9,0.1-1.4,0.1H102c-1.2,0-2.7,0.1-4.1,0.1c-0.5,0-0.9,0.1-1.4,0.1c-0.5,0.1-0.8,0.4-0.9,0.9c0,0.3-0.1,0.5,0,0.8
	c0,0.3,0.3,0.6,0.6,0.7c0.2,0.1,0.5,0.2,0.8,0.2c0.5,0.1,1,0.1,1.6,0.1c2.5,0,5.1,0.2,7.7,0.1c0.6,0,1.3,0.1,1.9,0.2
	c0.3,0,0.6,0.4,0.6,0.7v1.8c-0.1,0.7-0.6,1.3-1.4,1.4c-1.1,0.2-2.2,0.3-3.3,0.4c-1.4,0.2-2.8,0.5-4.2,1.1c-0.5,0.2-0.8,0.5-0.9,0.9
	c-0.2,0.7-0.4,1.5-0.4,2.3c-0.1,2.9,0,1.6-0.1,4.5c0,0.5-0.1,0.9-0.1,1.4c-0.1,0.3-0.5,0.7-0.8,0.7L92,26.5c-0.9,0-1.5-0.4-2-1.1
	c-0.2-0.3-0.4-0.6-0.4-0.9c-0.1-1-0.1-2-0.1-2.9c0-0.7,0.6-1.3,1.4-1.4c0.8-0.1,1.6-0.1,2.3-0.1c0.4,0,0.8,0,1.2-0.1
	c1.1-0.1,1.7-0.9,1.5-2c0-0.2-0.1-0.4-0.2-0.6c-0.2-0.5-0.6-0.9-1.1-0.9c-0.6-0.1-1.2-0.1-1.8-0.1s-1.2,0-1.8-0.1
	c-1.3-0.1-2-1.1-2-2c0-0.6-0.1-1.2-0.1-1.8c0-0.5-0.1-1-0.2-1.6c-0.2-1.4-1.1-2.2-2.4-2.5c-0.9-0.2-1.8-0.2-2.7-0.2
	c-0.8,0-1.6,0-2.3-0.1c-0.5,0-0.8-0.4-1-0.8C80.2,6.9,80.1,6.4,80,6c0.2,0,0.2-1,0.1-2c-0.1-0.9-0.8-1.7-1.8-1.8h-0.4
	c-1.2,0-2.3,0.1-3.5,0.2c-0.8,0.1-1.2,0.7-1,1.6c0.1,0.4,0.4,0.7,0.8,0.8c0.5,0.2,1,0.2,1.5,0.4c0.6,0.1,0.9,0.5,0.9,1.1
	c0,0.5,0,0.9-0.1,1.4s-0.3,0.9-0.7,1.1c-0.1,0.1-0.3,0.2-0.5,0.3c-0.3,0.1-0.7,0-1,0.1h-3.5c-0.7,0.1-1.2,0.6-1.3,1.2
	c0,0.3-0.1,0.5-0.1,0.8v1.2c0,0.9-0.1,1.3-1.3,1.6c-0.3,0.1-0.6,0.1-1,0.1c-0.6,0-1-0.3-1.2-0.9c-0.2-0.4-0.3-0.9-0.4-1.3
	c-0.1-0.2-0.1-0.5-0.3-0.7c-0.2-0.5-0.6-0.9-1.2-0.9c-1.9-0.1-3.8-0.3-5.7-0.2c-0.5,0-0.9,0.1-1.3,0.3c-0.4,0.1-0.8,0.5-0.9,1
	c-0.3,1.1-0.3,2.2-0.1,3.3c0.1,0.5,0.7,0.8,1.2,0.7c0.3-0.1,0.6-0.2,0.8-0.5c0.2-0.2,0.3-0.4,0.4-0.7c0.4-0.6,0.9-0.9,1.6-0.9
	c0.5,0,0.9,0,1.4,0.1s1,0.4,1.2,0.9c0.3,0.9,0.6,1.9,0.8,2.8c0.4,1.2,0.8,2.5,1.1,3.7c0.2,0.7,0.7,1.1,1.3,1.3
	c0.8,0.3,1.5,0.3,2.3,0.4c0.5,0.1,1,0.5,1,1c0,0.6,0.1,1.2-0.1,1.8c-0.2,0.7-0.6,1.2-1.3,1.4c-0.9,0.2-1.8,0.4-2.7,0.4
	c-0.9,0-1.8,0-2.7,0.1c-1.1,0.1-2,0.9-2.1,2c-0.1,0.8-0.2,1.7-0.2,2.5v0.8c-0.2,1.4-0.8,2.2-1.8,2.2c-0.7,0-1.9-0.5-1.9-2.3v-0.2
	L56,30.5v-0.2c0-1.2-0.6-1.9-1.6-2.4l-0.9-0.3c-1.2-0.4-2.2-1-3.3-1.7c-0.7-0.4-1-1-1.1-1.8c-0.1-0.7,0.3-1.5,1-1.7
	c0.3-0.1,0.6-0.2,1-0.2h3.1c0.8,0,1.4,0.4,1.7,1.1c0.2,0.5,0.4,1.1,0.6,1.7c0.3,0.9,1.2,1.2,2.1,0.7c0.2-0.1,0.4-0.3,0.5-0.6
	c0.2-1.2,0.2-2.5,0-3.7c-0.2-1.4-1.3-2.3-2.7-2.4c-1-0.1-2-0.1-2.9-0.1c-1.2-0.1-2.5-0.1-3.7-0.2c-0.4,0-0.8-0.5-0.8-0.9v-2
	c0-0.3,0-0.5-0.1-0.8c-0.3-1.2-1.4-1.7-2.6-1.3c-0.2,0.1-0.4,0.3-0.5,0.6c-0.2,0.4-0.3,0.7-0.3,1.1c-0.1,1.2-0.2,2.5-0.1,3.7
	c0,1.7,0.1,3.4,0.1,5.1c0,0.4,0.1,0.8,0.1,1.2c0,1.2,0.6,2.1,1.7,2.7c1,0.5,2,1,2.9,1.5c0.5,0.2,0.9,0.5,1.4,0.7
	c0.9,0.5,1.3,1.3,1.1,2.3c0,0.3-0.2,0.6-0.6,0.7c-0.4,0.1-0.8,0.2-1.1,0.2H48c-1.4-0.1-2.7-0.2-4.1-0.3c-0.5,0-1-0.2-1.5-0.5
	c-0.7-0.4-1.2-1-1.2-1.9c-0.1-1.2-0.3-2.5-0.4-3.7c-0.1-0.9-0.3-1.7-0.6-2.5c-0.2-0.6-0.7-1-1.3-1.1c-0.4-0.1-0.8-0.2-1.2-0.2
	c-3.7-0.3-7.4-0.2-11,0c-0.7,0-1.3,0.2-1.9,0.5C24.3,24,24,24.4,23.9,25c-0.2,0.9-0.2,1.7-0.2,2.6c0,1.5-1.2,2-1.7,2
	c-0.7,0-1.3-1.5-1.3-2.1c0-0.4,0-2.3,0.1-3.6l0.2-2.1c0-0.4,0-0.8,0.1-1.2c0.1-0.8,0.5-1,1.2-1.1c2.8-0.3,5.6-0.3,8.5-0.2h7.8
	c0.5,0,1-0.2,1.5-0.5c0.6-0.3,1-0.9,1.1-1.6V8.4c0-0.3,0-0.5-0.1-0.8c0-0.2-0.1-0.4-0.2-0.5c-0.2-0.4-0.8-0.8-1.3-0.7
	c-0.5,0.1-1,0.5-1,1c-0.1,0.5-0.1,1-0.2,1.6c-0.1,1.5-0.2,3-0.2,4.5c0,0.7-0.1,1.3-0.3,1.9c-0.2,0.5-0.5,0.8-1,0.9
	c-0.3,0.1-0.6,0.2-1,0.1c-0.6,0-1.3-0.1-1.9-0.2c-0.4-0.1-0.6-0.3-0.7-0.6c-0.1-0.3-0.2-0.6-0.2-1c0-1-0.1-2-0.1-2.9
	c-0.1-1.4-0.2-2.7-0.3-4.1c0-0.4-0.3-0.7-0.7-0.8c-0.1,0-0.2-0.1-0.4-0.1c-0.6-0.1-1.2,0.2-1.4,0.7c-0.1,0.4-0.2,0.8-0.2,1.1v2.2
	c0,1.1,0,2.2-0.1,3.3c0,0.5-0.1,1-0.3,1.5c-0.1,0.6-0.6,0.9-1.1,1c-0.5,0.1-1,0.1-1.6,0c-0.6-0.1-1.2-0.7-1.2-1.3v-0.6
	c0.2-1.1,0-2.1-0.1-3.1c-0.1-0.8-0.7-1.3-1.4-1.3h-0.8c-1.8,0.1-3.5,0.1-5.3,0.2c-0.5,0-0.9,0-1.4,0.1c-0.2,0-0.4,0.1-0.5,0.3
	c-0.6,0.6-0.4,2,0.4,2.4c0.3,0.1,0.6,0.2,0.9,0.2c0.6,0,1.2,0.1,1.8,0c0.9-0.2,1.7,0.1,2.5,0.3c0.3,0.1,0.4,0.3,0.5,0.6
	c0.1,0.4,0.2,0.8,0.1,1.2c-0.1,0.5-0.4,0.9-0.9,0.9c-0.5,0.1-0.9,0.1-1.4,0.1c-0.3,0-0.6,0.1-1,0.2c-0.9,0.2-1.5,0.9-1.5,1.8v1.2
	c0.1,1.5-0.2,3-0.2,4.5c0,0.4-0.3,0.7-0.6,0.9c-0.3,0.1-0.6,0.3-0.9,0.3c-0.6,0.1-1.2,0.1-1.8,0.1H4.7c-1.5,0-1.9-0.9-2-1.1v-0.8
	c0-0.3,0.6-1.2,2-1.2h3.9c0.7,0,1.4-0.2,2.1-0.5c1-0.4,1.5-1,1.5-2.1c0-2,0.1-3.9,0.1-5.9c0-1.2-0.1-2.5-0.1-3.7
	c0-1.6,0.2-3.1,0.3-4.7c0.3-1,0.8-1.5,1.5-1.5h2.5c0.7,0,1.3,0.4,1.6,1c0.3,0.5,0.4,1.1,0.6,1.6C19,7.1,19.4,7.4,20,7.5
	c0.5,0,1,0,1.5-0.3C22,7,22.2,6.7,22.2,6.3c0-1,0-2-0.1-2.9c-0.2-1.3-1-2.3-2.3-2.7c-0.2-0.1-0.5-0.1-0.8-0.2
	c-1.7-0.1-3.4-0.3-5.1-0.4c-0.7,0-1.4,0.1-2.1,0.3c-0.7,0.2-1.2,0.5-1.6,1.1c-0.4,0.6-0.7,1.3-0.8,2c0.1,0.4,0,0.9,0,1.3v4.9
	c0,0.7-0.4,1.2-1.2,1.4l-2.1,0.3c-1,0.1-2.1,0-3.1,0.1c-0.4,0-0.8,0-1.2,0.1c-0.6,0-1.1,0.4-1.3,1.1c-0.1,0.3,0,0.5,0.1,0.7
	c0.4,0.6,1,1,1.8,1c1.5,0,3,0,4.5,0.1c0.6,0,1.2,0.1,1.8,0.1c0.4,0,0.7,0.4,0.7,0.8v1C9,18.8,9.2,19.2,6.2,19.1"/>
<defs>
	
		<filter id="Adobe_OpacityMaskFilter_00000150789579556086164120000013908915648270782382_" filterUnits="userSpaceOnUse" x="-0.7" y="-0.4" width="201.4" height="42.4">
		<feColorMatrix  type="matrix" values="1 0 0 0 0  0 1 0 0 0  0 0 1 0 0  0 0 0 1 0"/>
	</filter>
</defs>
<mask maskUnits="userSpaceOnUse" x="-0.7" y="-0.4" width="201.4" height="42.4" id="b_00000024721027312361538750000012420975320467824033_">
	<g class="st0">
		<path class="st1" d="M-0.7,0h201.4v42H-0.7V0z"/>
	</g>
</mask>
<path class="st4" d="M68.6,19.2c-0.3,0-0.5-0.1-0.7-0.2c-0.5-0.2-0.6-0.6-0.7-1.1c0-0.4,0.4-0.9,0.8-0.9c0.6,0,1.2,0,1.8-0.1
	c0.7,0,1.3-0.1,1.9-0.4c0.6-0.2,1-0.7,1.1-1.3c0.1-0.4,0.1-0.9,0.1-1.4c0.1-0.6,0.6-1.1,1.1-1.2c0.8-0.1,1.6-0.3,2.3-0.3
	c2.2,0,4.4,0.1,6.6,0.2c1.3,0.3,2.3,0.9,2.8,2.2c0.2,0.7,0.4,1.4,0.4,2.1c0.1,1.9,0.1,5.9,0.2,5.9v3.8c-0.1,1.7-0.5,3.7-2.6,3.7
	c-1.9,0-2.6-2.2-2.6-3.4c0-1.5,0.1-3.1,0.1-4.6c0-0.5-0.1-1-0.2-1.5c-0.1-0.6-0.6-1-1.2-1.2c-0.7-0.2-1.4-0.2-2.1-0.2h-7.5
	C69.8,19.2,69.2,19.2,68.6,19.2 M6.2,19.1c-1.3,0-2.6-0.1-3.9,0h-3V42h201.4V19.1h-5.1c0,0-1.4,0.1-1.4,1.3c0,1.4,0,2.8-0.1,4.3
	c0,0.5-0.1,0.9-0.2,1.3c-0.1,0.3-0.3,0.6-0.4,0.9c-0.3,0.4-0.7,0.6-1.2,0.6c-0.9,0-1.8,0.1-2.7,0.1h-2.7c-0.3,0-0.7,0-1-0.1
	c-0.7-0.1-1.3-0.6-1.4-1.2c-0.2-1.2-0.3-2.5-0.1-3.7c0.1-0.4,0.3-0.7,0.7-0.8c0.4-0.1,0.8,0,1.1,0.3c0.1,0.1,0.2,0.3,0.3,0.5
	l0.3,1.5c0.1,0.6,0.6,1,1.2,1.1h0.2c2,0.2,2.5-0.8,2.7-2.1c0.2-1,0-3.6-0.1-4.9c-0.4-0.7-1-1.3-1.8-1.6c-0.9-0.3-1.7-0.5-2.7-0.5
	c-0.9,0-1.8,0-2.7-0.1c-0.6,0-1-0.3-1.2-0.8c-0.5-1.1,0.1-2.2,1.3-2.3h3.9c1.5,0,1.9-0.2,3.1-1.5c1-0.7,1.8-0.4,2.6-0.3
	c0.9,0.1,1.3,0.9,1.6,1.7c0.2,0.5,0.3,1,0.4,1.5c0.1,0.4,0.2,0.7,0.4,1.1c0.1,0.3,0.7,0.6,1.1,0.6c0.5,0,1-0.5,1.1-1
	c0.2-1.2,0.1-2.3,0-3.5c-0.1-0.5-0.2-1-0.4-1.5c-0.4-1-1.1-1.6-2.1-1.8c-0.6-0.1-1.3-0.1-1.9-0.2c-0.5,0-1,0-1.6-0.1
	c-0.6-0.1-0.9-0.4-1-1V6.1c0-1-0.3-2.1-0.8-3c-0.3-0.6-0.8-0.9-1.4-1c-0.5,0-1-0.1-1.6-0.1h-3.7c-0.5,0-0.8,0.3-1,0.8
	c0,0.1-0.1,0.3-0.1,0.4c0,0.5,0.3,1,0.7,1c0.4,0.1,0.9,0.1,1.4,0.1c0.6,0.1,1.2,0.1,1.7,0.2c0.9,0.2,1.3,0.8,1.5,1.6v0.5
	c0,0.4,0,0.8-0.1,1.2c-0.1,1-0.7,1.7-1.7,1.9c-0.7,0.2-1.4,0.2-2.1,0.3c-0.7,0.1-1.4,0.1-2.1,0.1c-1.1,0-1.8,0.7-2.2,1.6
	c-0.2,0.4-0.3,0.9-0.4,1.3c-0.1,0.7-0.1,1.4-0.1,2.1v0.1c0,2.3,0,6.7-0.1,7.4c0,0.3-0.1,0.6-0.2,0.9c-0.4,1-1.5,1.2-2.2,0.6
	c-0.3-0.2-0.5-0.5-0.7-0.9l-0.3-1.2v-1.2c0-0.3-0.1-0.6-0.1-1c-0.2-1-0.8-1.6-1.7-1.9c-0.6-0.2-1.1-0.2-1.7-0.2h-2
	c-0.5,0-1.4,0.1-1.9,0c-0.5,0-0.7-0.4-0.8-0.8c0-0.4-0.1-0.9,0.1-1.2c0.4-0.7,1-1.1,1.9-1.1c1.1-0.1,2.2-0.2,3.3-0.4
	c0.7-0.1,1.4-0.2,2-0.5c0.7-0.2,1.1-0.7,1.2-1.4c0.1-0.4,0.1-0.8,0.1-1.2c0.2-3.1,0.2-5.5,0-8.6c0-0.6-0.2-1.1-0.4-1.7
	c-0.2-0.5-0.6-0.9-1.2-1c-1.4-0.3-8.2-0.2-9.6,0c-0.7,0.1-1.1,0.6-1.1,1.2c0,0.7,0.6,1.3,1.1,1.4c0.2,0.1,0.5,0.1,0.7,0.1
	c0.4,0,6,0,6.4,0.1c0.7,0.1,1.1,0.6,1.2,1.3v0.7c0,0.6-0.3,0.9-1,1h-4.6c-1.2,0-0.5,0.1-1.7,0.1c-0.5,0-0.9,0-1.4,0.1
	c-0.7,0.1-1.1,1.2-0.7,1.8c0.1,0.1,0.2,0.3,0.4,0.3c0.5,0.1,1,0.2,1.5,0.2c1.5,0,1.1,0.1,2.6,0c1-0.1,2.1,0,3.1,0.1
	c0.5,0,0.9,0.1,1.4,0.2c0.2,0,0.4,0.2,0.5,0.5c0.2,0.7,0.1,0.7-0.1,1.4c-0.1,0.4-0.4,0.7-0.8,0.8c-0.3,0.1-0.6,0.1-0.9,0.1
	c-1.4,0.2-2.8,0.3-4.1,0.7c-0.7,0.2-1.4,0.4-2.2,0.7c-0.3,0.1-0.5,0.3-0.6,0.6c-0.2,0.7-0.4,1.3-0.4,2V16c-0.2,2.1-0.8,1.8-2.5,1.8
	H161c-0.4-0.1-0.7-0.3-0.9-0.7c-0.1-0.2-0.1-0.3-0.2-0.5c-0.1-0.7-0.1-1.7-0.1-2.1c-0.1-1.3-0.1-2.6-0.2-4c0-0.5-0.1-0.9-0.1-1.4
	c-0.1-0.5-0.4-0.8-0.9-0.9c-0.4-0.1-1,0.2-1.1,0.6c-0.1,0.2-0.1,0.3-0.2,0.5c-0.1,0.2-0.1,0.5-0.1,0.7v8.3c0,0.6-0.5,1-1.2,1h-2.5
	c-3.4,0.1-4.7,0.1-8.2,0.2c-0.6,0-1.2,0.1-1.7,0.3c-0.4,0.2-0.6,0.5-0.6,0.9c0,0.5,0.1,0.9,0.4,1.3c0.2,0.3,0.5,0.5,0.8,0.5
	c0.4,0.1,0.8,0.1,1.2,0.1h9.9c0.4,0,0.9,0.1,1.3,0.2c0.5,0.2,0.9,0.6,1,1.1v0.2c0.1,1.4,0.1,2.9,0,4.3c0,0.5-0.4,0.8-0.9,0.8
	c-0.8,0-1.1-0.3-1.3-0.9c-0.1-0.3-0.1-0.6-0.2-1c-0.1-0.4-0.2-0.8-0.3-1.1c-0.2-0.5-0.6-0.9-1.2-0.9c-0.6-0.1-1.3,0-2,0
	c-0.5,0-0.8,0.3-0.9,0.9s-0.1,1.3-0.2,1.9c0,0.3-0.1,0.6-0.2,1c-0.1,0.3-0.3,0.5-0.6,0.5c-0.3,0-0.6,0.1-1,0c-0.4,0-0.7-0.3-0.8-0.7
	c-0.2-0.6-0.3-1.3-0.4-1.9c-0.1-0.3-0.1-0.6-0.3-0.9c-0.1-0.2-0.3-0.3-0.4-0.4c-0.4-0.1-0.8-0.1-1.2-0.1h-2.7
	c-0.7,0-1.3-0.1-1.9-0.3c-0.7-0.3-1.2-0.7-1.4-1.5c-0.1-0.4-0.2-0.9-0.2-1.3v-5.4c0.1-0.6,0.5-1,1-1.1h8.9c0.6,0,1.2,0,1.8-0.1
	c0.3,0,0.5-0.1,0.8-0.2c0.4-0.1,0.7-0.4,0.8-0.8c0.1-0.6,0.2-1.2,0.3-1.7c0.1-2,0.2-4,0.3-6.1c0-0.7-0.1-1.4-0.2-2.1
	c-0.1-0.7-0.5-1.1-1.2-1.2c-1.6-0.2-3.2-0.3-4.9-0.1c-0.5,0.1-0.8,0.4-0.9,0.9c-0.1,0.5,0.2,1.1,0.6,1.3c0.4,0.1,0.7,0.2,1.1,0.4
	c0.4,0.1,0.8,0.2,1.1,0.4c0.6,0.3,1,0.8,1.1,1.5c0.1,0.9,0,1.8-0.2,2.7c-0.2,0.8-0.7,1.4-1.5,1.7c-0.5,0.2-1,0.2-1.5,0.1
	c-0.2,0-0.4-0.2-0.4-0.3c-0.1-0.4-0.1-0.8-0.2-1.2c-0.1-0.5-0.1-1-0.2-1.5c-0.1-0.6-0.5-0.9-1.1-0.9h-0.6c-0.3,0.1-0.6,0.3-0.7,0.6
	c-0.1,0.3-0.1,0.6-0.1,1l-0.3,1.5c-0.1,0.6-0.5,0.9-1.1,0.9c-1.1,0-2.2,0.1-3.3,0.1h-1.6c-0.7,0-1.2,0.5-1.3,1.2
	c-0.1,0.8-0.1,1.6-0.2,2.3c0,0.7,0,1.7-0.1,2.4c0,0.3-0.1,0.6-0.3,0.9c-0.1,0.2-0.3,0.4-0.6,0.5c-0.4,0.1-0.9,0.1-1.4,0.1
	c-0.8,0-1.3-0.5-1.4-1.4c-0.1-0.7-0.1-1.4-0.2-2.2v-5.3c0-0.5,0-1-0.1-1.6c-0.1-0.7-0.5-1.2-1.2-1.4c-0.2-0.1-0.5-0.2-0.8-0.2
	c-0.5-0.1-1.1,0.3-1.2,0.8c-0.2,0.7-0.2,1.4-0.2,2.1v2.5c0,0.5-0.5,0.9-1,0.9h-0.4c-0.3,0-0.7-0.1-1-0.1c-0.8,0-1.3-0.4-1.6-1.2
	c-0.3-0.7-0.4-1.4-0.4-2.1V8.6c0-1-0.3-2.1-0.8-3c-0.3-0.6-0.8-0.9-1.4-1c-0.5,0-1-0.1-1.6-0.1H116c-0.5,0-0.8,0.3-1,0.8
	c0,0.1-0.1,0.3-0.1,0.4c0,0.5,0.3,0.9,0.7,1c0.4,0.1,0.9,0.1,1.4,0.1c0.6,0.1,1.2,0.1,1.7,0.2c0.9,0.2,1.3,0.8,1.5,1.6v0.2
	c0,1,0.1,2,0.1,2.9c0,0.2-0.2,0.5-0.5,0.6c-0.3,0.1-0.5,0.1-0.8,0.2c-0.5,0.1-1,0.1-1.6,0.1c-1.2,0.2-2,0.9-2.2,2.1
	c-0.1,0.7-0.1,1.4-0.1,2.1s0.1,1.4,0.3,2.1c0.2,0.5,0.5,0.7,1.1,0.7s1.1-0.4,1.2-0.8s0.1-0.9,0.2-1.4c0.2-1.4,0.6-1.7,2.1-1.7
	c0.2,0,0.5,0.1,0.7,0.3c0.3,0.2,0.6,0.5,0.8,0.8c0.5,0.5,1,0.8,1.7,0.9c0.8,0.1,1.7,0.1,2.5,0.2c0.3,0,0.6,0,1,0.1
	c0.3,0.1,0.5,0.3,0.5,0.5c0.2,1,0.2,2.1-0.1,3.1c-0.1,0.2-0.3,0.5-0.5,0.6c-0.3,0.2-0.7,0.3-1.1,0.4c-1.5,0.3-2.9,0.5-4.5,0.5h-0.9
	c-0.2,0-0.4,0.1-0.6,0.1c-0.5,0.1-0.8,0.4-0.9,0.9c0,0.1-0.1,0.3-0.1,0.4c-0.1,1-0.3,0.8-0.3,1.9c-0.1,1-0.1,2.1-0.1,3.1
	c0,0.7-0.1,1.4-0.4,2.1c-0.2,0.4-0.5,0.6-0.9,0.7c-0.8,0.1-1.6-0.5-1.7-1.2c0-0.5-0.1-1-0.1-1.6c0-1.8,0-2.3-0.1-4.1
	c-0.1-1.3-0.5-2-1.5-2.3c-0.8,0-1.6,0.1-2.5,0.1c-0.4,0-0.8,0.1-1.2,0.1c-1.2,0-2.1,0.6-2.7,1.7c-0.5,1-1,2-1.5,2.9
	c-0.2,0.5-0.5,0.9-0.7,1.4c-0.5,0.9-1.3,1.3-2.3,1.1c-0.3,0-0.6-0.2-0.7-0.6s-0.2-0.8-0.2-1.1v-2.9c0.1-1.4,0.2-2.7,0.3-4.1
	c0-0.5,0.2-1,0.5-1.5c0.4-0.7,1-1.2,1.9-1.2c1.2-0.1,2.5-0.3,3.7-0.4c0.8-0.1,1.7-0.3,2.5-0.6c0.6-0.2,1-0.7,1.1-1.3
	c0.1-0.4,0.2-0.8,0.2-1.2c0.3-3.7,0.2-7.3,0-11c0-0.7-0.2-1.3-0.5-1.9c-0.2-0.5-0.7-0.8-1.2-0.9c-1.6-0.3-3.2-0.2-4.9,0
	c-0.8,0.1-1.3,0.7-1.3,1.3c0,0.9,0.7,1.5,1.2,1.6s1,0.1,1.6,0.1c1.5,0,2,0.9,1.9,2.1v0.6c0,0.3-0.3,0.6-0.6,0.7
	c-0.5,0-0.9,0.1-1.4,0.1H102c-1.2,0-2.7,0.1-4.1,0.1c-0.5,0-0.9,0.1-1.4,0.1c-0.5,0.1-0.8,0.4-0.9,0.9c0,0.3-0.1,0.5,0,0.8
	c0,0.3,0.3,0.6,0.6,0.7c0.2,0.1,0.5,0.2,0.8,0.2c0.5,0.1,1,0.1,1.6,0.1c2.5,0,5.1,0.2,7.7,0.1c0.6,0,1.3,0.1,1.9,0.2
	c0.3,0,0.6,0.4,0.6,0.7v1.8c-0.1,0.7-0.6,1.3-1.4,1.4c-1.1,0.2-2.2,0.3-3.3,0.4c-1.4,0.2-2.8,0.5-4.2,1.1c-0.5,0.2-0.8,0.5-0.9,0.9
	c-0.2,0.7-0.4,1.5-0.4,2.3c-0.1,2.9,0,1.6-0.1,4.5c0,0.5-0.1,0.9-0.1,1.4c-0.1,0.3-0.5,0.7-0.8,0.7L92,26.5c-0.9,0-1.5-0.4-2-1.1
	c-0.2-0.3-0.4-0.6-0.4-0.9c-0.1-1-0.1-2-0.1-2.9c0-0.7,0.6-1.3,1.4-1.4c0.8-0.1,1.6-0.1,2.3-0.1c0.4,0,0.8,0,1.2-0.1
	c1.1-0.1,1.7-0.9,1.5-2c0-0.2-0.1-0.4-0.2-0.6c-0.2-0.5-0.6-0.9-1.1-0.9c-0.6-0.1-1.2-0.1-1.8-0.1s-1.2,0-1.8-0.1
	c-1.3-0.1-2-1.1-2-2c0-0.6-0.1-1.2-0.1-1.8c0-0.5-0.1-1-0.2-1.6c-0.2-1.4-1.1-2.2-2.4-2.5c-0.9-0.2-1.8-0.2-2.7-0.2
	c-0.8,0-1.6,0-2.3-0.1c-0.5,0-0.8-0.4-1-0.8C80.2,6.9,80.1,6.4,80,6c0.2,0,0.2-1,0.1-2c-0.1-0.9-0.8-1.7-1.8-1.8h-0.4
	c-1.2,0-2.3,0.1-3.5,0.2c-0.8,0.1-1.2,0.7-1,1.6c0.1,0.4,0.4,0.7,0.8,0.8c0.5,0.2,1,0.2,1.5,0.4c0.6,0.1,0.9,0.5,0.9,1.1
	c0,0.5,0,0.9-0.1,1.4s-0.3,0.9-0.7,1.1c-0.1,0.1-0.3,0.2-0.5,0.3c-0.3,0.1-0.7,0-1,0.1h-3.5c-0.7,0.1-1.2,0.6-1.3,1.2
	c0,0.3-0.1,0.5-0.1,0.8v1.2c0,0.9-0.1,1.3-1.3,1.6c-0.3,0.1-0.6,0.1-1,0.1c-0.6,0-1-0.3-1.2-0.9c-0.2-0.4-0.3-0.9-0.4-1.3
	c-0.1-0.2-0.1-0.5-0.3-0.7c-0.2-0.5-0.6-0.9-1.2-0.9c-1.9-0.1-3.8-0.3-5.7-0.2c-0.5,0-0.9,0.1-1.3,0.3c-0.4,0.1-0.8,0.5-0.9,1
	c-0.3,1.1-0.3,2.2-0.1,3.3c0.1,0.5,0.7,0.8,1.2,0.7c0.3-0.1,0.6-0.2,0.8-0.5c0.2-0.2,0.3-0.4,0.4-0.7c0.4-0.6,0.9-0.9,1.6-0.9
	c0.5,0,0.9,0,1.4,0.1s1,0.4,1.2,0.9c0.3,0.9,0.6,1.9,0.8,2.8c0.4,1.2,0.8,2.5,1.1,3.7c0.2,0.7,0.7,1.1,1.3,1.3
	c0.8,0.3,1.5,0.3,2.3,0.4c0.5,0.1,1,0.5,1,1c0,0.6,0.1,1.2-0.1,1.8c-0.2,0.7-0.6,1.2-1.3,1.4c-0.9,0.2-1.8,0.4-2.7,0.4
	c-0.9,0-1.8,0-2.7,0.1c-1.1,0.1-2,0.9-2.1,2c-0.1,0.8-0.2,1.7-0.2,2.5v0.8c-0.2,1.4-0.8,2.2-1.8,2.2c-0.7,0-1.9-0.5-1.9-2.3v-0.2
	L56,30.5v-0.2c0-1.2-0.6-1.9-1.6-2.4l-0.9-0.3c-1.2-0.4-2.2-1-3.3-1.7c-0.7-0.4-1-1-1.1-1.8c-0.1-0.7,0.3-1.5,1-1.7
	c0.3-0.1,0.6-0.2,1-0.2h3.1c0.8,0,1.4,0.4,1.7,1.1c0.2,0.5,0.4,1.1,0.6,1.7c0.3,0.9,1.2,1.2,2.1,0.7c0.2-0.1,0.4-0.3,0.5-0.6
	c0.2-1.2,0.2-2.5,0-3.7c-0.2-1.4-1.3-2.3-2.7-2.4c-1-0.1-2-0.1-2.9-0.1c-1.2-0.1-2.5-0.1-3.7-0.2c-0.4,0-0.8-0.5-0.8-0.9v-2
	c0-0.3,0-0.5-0.1-0.8c-0.3-1.2-1.4-1.7-2.6-1.3c-0.2,0.1-0.4,0.3-0.5,0.6c-0.2,0.4-0.3,0.7-0.3,1.1c-0.1,1.2-0.2,2.5-0.1,3.7
	c0,1.7,0.1,3.4,0.1,5.1c0,0.4,0.1,0.8,0.1,1.2c0,1.2,0.6,2.1,1.7,2.7c1,0.5,2,1,2.9,1.5c0.5,0.2,0.9,0.5,1.4,0.7
	c0.9,0.5,1.3,1.3,1.1,2.3c0,0.3-0.2,0.6-0.6,0.7c-0.4,0.1-0.8,0.2-1.1,0.2H48c-1.4-0.1-2.7-0.2-4.1-0.3c-0.5,0-1-0.2-1.5-0.5
	c-0.7-0.4-1.2-1-1.2-1.9c-0.1-1.2-0.3-2.5-0.4-3.7c-0.1-0.9-0.3-1.7-0.6-2.5c-0.2-0.6-0.7-1-1.3-1.1c-0.4-0.1-0.8-0.2-1.2-0.2
	c-3.7-0.3-7.4-0.2-11,0c-0.7,0-1.3,0.2-1.9,0.5C24.3,24,24,24.4,23.9,25c-0.2,0.9-0.2,1.7-0.2,2.6c0,1.5-1.2,2-1.7,2
	c-0.7,0-1.3-1.5-1.3-2.1c0-0.4,0-2.3,0.1-3.6l0.2-2.1c0-0.4,0-0.8,0.1-1.2c0.1-0.8,0.5-1,1.2-1.1c2.8-0.3,5.6-0.3,8.5-0.2h7.8
	c0.5,0,1-0.2,1.5-0.5c0.6-0.3,1-0.9,1.1-1.6V8.4c0-0.3,0-0.5-0.1-0.8c0-0.2-0.1-0.4-0.2-0.5c-0.2-0.4-0.8-0.8-1.3-0.7
	c-0.5,0.1-1,0.5-1,1c-0.1,0.5-0.1,1-0.2,1.6c-0.1,1.5-0.2,3-0.2,4.5c0,0.7-0.1,1.3-0.3,1.9c-0.2,0.5-0.5,0.8-1,0.9
	c-0.3,0.1-0.6,0.2-1,0.1c-0.6,0-1.3-0.1-1.9-0.2c-0.4-0.1-0.6-0.3-0.7-0.6c-0.1-0.3-0.2-0.6-0.2-1c0-1-0.1-2-0.1-2.9
	c-0.1-1.4-0.2-2.7-0.3-4.1c0-0.4-0.3-0.7-0.7-0.8c-0.1,0-0.2-0.1-0.4-0.1c-0.6-0.1-1.2,0.2-1.4,0.7c-0.1,0.4-0.2,0.8-0.2,1.1v2.2
	c0,1.1,0,2.2-0.1,3.3c0,0.5-0.1,1-0.3,1.5c-0.1,0.6-0.6,0.9-1.1,1c-0.5,0.1-1,0.1-1.6,0c-0.6-0.1-1.2-0.7-1.2-1.3v-0.6
	c0.2-1.1,0-2.1-0.1-3.1c-0.1-0.8-0.7-1.3-1.4-1.3h-0.8c-1.8,0.1-3.5,0.1-5.3,0.2c-0.5,0-0.9,0-1.4,0.1c-0.2,0-0.4,0.1-0.5,0.3
	c-0.6,0.6-0.4,2,0.4,2.4c0.3,0.1,0.6,0.2,0.9,0.2c0.6,0,1.2,0.1,1.8,0c0.9-0.2,1.7,0.1,2.5,0.3c0.3,0.1,0.4,0.3,0.5,0.6
	c0.1,0.4,0.2,0.8,0.1,1.2c-0.1,0.5-0.4,0.9-0.9,0.9c-0.5,0.1-0.9,0.1-1.4,0.1c-0.3,0-0.6,0.1-1,0.2c-0.9,0.2-1.5,0.9-1.5,1.8v1.2
	c0.1,1.5-0.2,3-0.2,4.5c0,0.4-0.3,0.7-0.6,0.9c-0.3,0.1-0.6,0.3-0.9,0.3c-0.6,0.1-1.2,0.1-1.8,0.1H4.7c-1.5,0-1.9-0.9-2-1.1v-0.8
	c0-0.3,0.6-1.2,2-1.2h3.9c0.7,0,1.4-0.2,2.1-0.5c1-0.4,1.5-1,1.5-2.1c0-2,0.1-3.9,0.1-5.9c0-1.2-0.1-2.5-0.1-3.7
	c0-1.6,0.2-3.1,0.3-4.7c0.3-1,0.8-1.5,1.5-1.5h2.5c0.7,0,1.3,0.4,1.6,1c0.3,0.5,0.4,1.1,0.6,1.6C19,7.1,19.4,7.4,20,7.5
	c0.5,0,1,0,1.5-0.3C22,7,22.2,6.7,22.2,6.3c0-1,0-2-0.1-2.9c-0.2-1.3-1-2.3-2.3-2.7c-0.2-0.1-0.5-0.1-0.8-0.2
	c-1.7-0.1-3.4-0.3-5.1-0.4c-0.7,0-1.4,0.1-2.1,0.3c-0.7,0.2-1.2,0.5-1.6,1.1c-0.4,0.6-0.7,1.3-0.8,2c0.1,0.4,0,0.9,0,1.3v4.9
	c0,0.7-0.4,1.2-1.2,1.4l-2.1,0.3c-1,0.1-2.1,0-3.1,0.1c-0.4,0-0.8,0-1.2,0.1c-0.6,0-1.1,0.4-1.3,1.1c-0.1,0.3,0,0.5,0.1,0.7
	c0.4,0.6,1,1,1.8,1c1.5,0,3,0,4.5,0.1c0.6,0,1.2,0.1,1.8,0.1c0.4,0,0.7,0.4,0.7,0.8v1C9,18.8,9.2,19.2,6.2,19.1"/>
</svg>
